<svg width="19" height="19" viewBox="0 0 19 19" fill="none" xmlns="http://www.w3.org/2000/svg">
<path d="M7.33144 0C3.40437 0.931741 0.406829 4.33895 1.4852e-08 8.5247H3.81691C4.05626 5.9046 5.20611 3.43082 6.29749 1.59748C6.65199 1.00197 7.00618 0.464373 7.33144 0Z" fill="#6C5ECF"/>
<path d="M0 10.4752C0.406829 14.661 3.40437 18.0682 7.33144 18.9999C7.00618 18.5356 6.65199 17.998 6.29749 17.4025C5.20611 15.5691 4.05626 13.0953 3.81691 10.4752H0Z" fill="#6C5ECF"/>
<path d="M11.6686 18.9999C11.9938 18.5356 12.348 17.998 12.7025 17.4025C13.7939 15.5691 14.9437 13.0953 15.1831 10.4752H19C18.5932 14.661 15.5956 18.0682 11.6686 18.9999Z" fill="#6C5ECF"/>
<path d="M19 8.5247H15.1831C14.9437 5.9046 13.7939 3.43082 12.7025 1.59748C12.348 1.00197 11.9938 0.464373 11.6686 1.93765e-09C15.5956 0.931741 18.5932 4.33895 19 8.5247Z" fill="#6C5ECF"/>
<path d="M11.0711 2.61093C12.0776 4.30176 13.0287 6.4034 13.2636 8.5247H5.73635C5.97135 6.4034 6.9224 4.30176 7.92894 2.61093C8.49935 1.65275 9.0707 0.854367 9.5 0.295202C9.9293 0.854367 10.5007 1.65275 11.0711 2.61093Z" fill="#6C5ECF"/>
<path d="M7.92894 16.389C6.9224 14.6982 5.97135 12.5965 5.73635 10.4752H13.2636C13.0287 12.5965 12.0776 14.6982 11.0711 16.389C10.5007 17.3472 9.9293 18.1456 9.5 18.7047C9.0707 18.1456 8.49935 17.3472 7.92894 16.389Z" fill="#6C5ECF"/>
</svg>
